<svg id="Livello_1" data-name="Livello 1" xmlns="http://www.w3.org/2000/svg" viewBox="0 0 500 500"><defs><style>.cls-1{fill:#135ea3;}.cls-2{fill:#00e3cc;}</style></defs><path class="cls-1" d="M196.15,201.3q-4.89,13.11-9.5,25.74t-9.32,24.73c-.68,1.66-1.21,3.09-1.61,4.29a10.66,10.66,0,0,0-.6,3.36,2.56,2.56,0,0,0,1.38,2.36,5.43,5.43,0,0,0,2.68.78,7.21,7.21,0,0,0,3.41-.78,12.64,12.64,0,0,0,2.54-1.76,23.93,23.93,0,0,0,1.75-1.75c.46-.52.81-.78,1.06-.78a.57.57,0,0,1,.65.64c0,.43-.5,1.19-1.48,2.26a25,25,0,0,1-3.83,3.32,30.72,30.72,0,0,1-5.26,3.05,13.7,13.7,0,0,1-5.76,1.34,10.37,10.37,0,0,1-2.86-.42,9,9,0,0,1-2.68-1.24,6.76,6.76,0,0,1-1.94-2.08,5.43,5.43,0,0,1-.73-2.81,10.43,10.43,0,0,1,.46-3c.3-1,.61-2,.92-2.95q4.8-13.65,9.59-27.12t9.78-27.22Z"/><path class="cls-1" d="M193,259.61a22.56,22.56,0,0,1,2.59-10.2,36.48,36.48,0,0,1,6.69-9.27,35,35,0,0,1,9.22-6.73,22.49,22.49,0,0,1,10.19-2.59,12.31,12.31,0,0,1,7.89,2.31q2.91,2.31,2.91,7.57a18.31,18.31,0,0,1-1.34,6.78,29.08,29.08,0,0,1-3.55,6.41,36.47,36.47,0,0,1-5.08,5.63,43.87,43.87,0,0,1-5.9,4.52,30,30,0,0,1-6,3,18,18,0,0,1-14.26-.88C194.12,264.87,193,262.68,193,259.61Zm28.05-19.28a12.29,12.29,0,0,0-.19-2.13,8.36,8.36,0,0,0-.64-2.12,4.55,4.55,0,0,0-1.25-1.66,3,3,0,0,0-2-.64,4.55,4.55,0,0,0-3,1.38,16.73,16.73,0,0,0-2.9,3.64,40,40,0,0,0-2.59,5q-1.2,2.78-2.12,5.58a47.82,47.82,0,0,0-1.43,5.36,22.08,22.08,0,0,0-.51,4.19,11.28,11.28,0,0,0,.19,1.94,7.88,7.88,0,0,0,.6,2,4.41,4.41,0,0,0,1.15,1.57,2.84,2.84,0,0,0,1.94.64,4.94,4.94,0,0,0,3.36-1.47,17.07,17.07,0,0,0,3-3.74,37,37,0,0,0,2.59-5.12c.79-1.9,1.47-3.77,2-5.58a51.19,51.19,0,0,0,1.29-5.12A21,21,0,0,0,221.06,240.33Z"/><path class="cls-1" d="M245.78,231.93h11.07l-6.64,16.7.18.09q1.67-2.49,3.88-5.62a45.89,45.89,0,0,1,4.89-5.86,28.44,28.44,0,0,1,5.76-4.57,12.54,12.54,0,0,1,6.51-1.85,9,9,0,0,1,5.21,1.57,5.45,5.45,0,0,1,2.26,4.8,15.86,15.86,0,0,1-1.29,4.94q-1.29,3.36-2.86,6.92t-2.86,6.59a14.11,14.11,0,0,0-1.29,4,3,3,0,0,0,1,2.58,4.64,4.64,0,0,0,2.77.74,5.44,5.44,0,0,0,2.54-.6A14.64,14.64,0,0,0,279,261c.62-.46,1.16-.88,1.62-1.25a2,2,0,0,1,1.15-.55c.25,0,.37.18.37.55s-.42.82-1.25,1.71a21,21,0,0,1-3.32,2.81,23.9,23.9,0,0,1-4.89,2.63,15.22,15.22,0,0,1-5.85,1.16,18.17,18.17,0,0,1-2.82-.23,10.33,10.33,0,0,1-2.63-.79,5.18,5.18,0,0,1-2-1.57,4.26,4.26,0,0,1-.79-2.67,9.61,9.61,0,0,1,.6-2.82c.41-1.19.91-2.53,1.53-4s1.26-3,1.94-4.61,1.32-3.11,1.93-4.52,1.12-2.69,1.52-3.83a8.62,8.62,0,0,0,.6-2.45q0-2.76-2.85-2.76a6.09,6.09,0,0,0-3.56,1.29,19.07,19.07,0,0,0-3.41,3.18,40.1,40.1,0,0,0-3,4c-.92,1.38-1.72,2.6-2.4,3.64a45.63,45.63,0,0,0-3.78,7.75q-1.84,4.71-3.51,9.32H233.79Z"/><path class="cls-1" d="M329.83,230.27c-1,2.83-2,5.8-3.05,8.9l-3.09,9.23c-1,3-2,5.95-2.95,8.72s-1.86,5.2-2.72,7.29a57.67,57.67,0,0,1-4.89,9.27,38.15,38.15,0,0,1-6.6,7.7,29.83,29.83,0,0,1-8.39,5.26,26.37,26.37,0,0,1-10.2,1.94,24.27,24.27,0,0,1-4.93-.42,8.4,8.4,0,0,1-3.14-1.24,4.54,4.54,0,0,1-1.61-2,7.94,7.94,0,0,1-.46-2.86,5,5,0,0,1,1.33-3.37,4.09,4.09,0,0,1,3.18-1.52,7.08,7.08,0,0,1,2.5.36,3.48,3.48,0,0,1,1.38.93,2.74,2.74,0,0,1,.6,1.29c.09.49.17,1,.23,1.48a14.25,14.25,0,0,0,.74,3.64c.37,1,1.38,1.52,3,1.52a6.06,6.06,0,0,0,4.06-1.84,28,28,0,0,0,4-4.71,61.44,61.44,0,0,0,3.82-6.36q1.85-3.51,3.42-6.87t2.9-6.23a43.14,43.14,0,0,1,2.26-4.34l-.27-.09q-1.39,1.84-3.37,4a32.72,32.72,0,0,1-4.34,4,26.9,26.9,0,0,1-4.89,3,11.8,11.8,0,0,1-5,1.2,9.34,9.34,0,0,1-5.49-1.52q-2.17-1.53-2.17-5.22a18.53,18.53,0,0,1,1.66-7.61,36.57,36.57,0,0,1,4.24-7.15,44.52,44.52,0,0,1,5.77-6.27,63.4,63.4,0,0,1,6.23-5,40.66,40.66,0,0,1,5.53-3.33,10,10,0,0,1,3.78-1.2,7.13,7.13,0,0,1,2.45.42,19.73,19.73,0,0,1,2.08.88A17.22,17.22,0,0,1,319,233a2.1,2.1,0,0,0,1,.42,5.25,5.25,0,0,0,1.29-.28c.61-.18,1.35-.43,2.21-.74Zm-32.11,28.14a5.6,5.6,0,0,0,.56,2.95,2.36,2.36,0,0,0,2.12.83,6.94,6.94,0,0,0,4-1.24,16,16,0,0,0,3.46-3.23,29.44,29.44,0,0,0,3-4.43,51.86,51.86,0,0,0,2.35-4.89c.67-1.63,1.26-3.18,1.75-4.66l1.2-3.6a7.62,7.62,0,0,0-3-3.32,8.41,8.41,0,0,0-4.34-1.2,3.94,3.94,0,0,0-2.63,1.25,14.66,14.66,0,0,0-2.54,3.27,38.16,38.16,0,0,0-2.26,4.57c-.7,1.69-1.32,3.38-1.84,5.07s-.94,3.29-1.25,4.8A19.48,19.48,0,0,0,297.72,258.41Z"/><path class="cls-1" d="M329.36,258.41a17.48,17.48,0,0,1,1.34-6.55,29.45,29.45,0,0,1,3.6-6.41,38.66,38.66,0,0,1,5.21-5.77,40.36,40.36,0,0,1,6.14-4.61,35.13,35.13,0,0,1,6.41-3.09,17.89,17.89,0,0,1,6-1.16,7,7,0,0,1,4.65,1.43,5.41,5.41,0,0,1,1.71,4.39,6.92,6.92,0,0,1-1.24,4A14.25,14.25,0,0,1,360,244a25.54,25.54,0,0,1-4.48,2.72,45.22,45.22,0,0,1-5,2.08q-2.54.87-4.89,1.43c-1.56.37-2.93.65-4.1.83-.12.8-.26,1.61-.42,2.44a13.8,13.8,0,0,0-.23,2.45c0,2.52.7,4.29,2.08,5.3a9.19,9.19,0,0,0,5.58,1.53,13.34,13.34,0,0,0,5.17-1,21.84,21.84,0,0,0,4-2.17,31.64,31.64,0,0,0,2.81-2.17c.74-.64,1.23-1,1.48-1s.37.22.37.65-.55,1.06-1.66,2.26a25.37,25.37,0,0,1-4.57,3.73,34.94,34.94,0,0,1-6.87,3.47,23.64,23.64,0,0,1-8.49,1.52,18.65,18.65,0,0,1-4.47-.51,9.63,9.63,0,0,1-3.6-1.66,8,8,0,0,1-2.4-3A10.56,10.56,0,0,1,329.36,258.41Zm24.91-21a1.39,1.39,0,0,0-.74-1.38,3.51,3.51,0,0,0-1.56-.37,4.31,4.31,0,0,0-3.09,1.62,20.9,20.9,0,0,0-2.82,3.78,40.44,40.44,0,0,0-2.26,4.38c-.64,1.48-1.15,2.62-1.52,3.42q6.92-2.22,9.45-5.31A9.68,9.68,0,0,0,354.27,237.37Z"/><path class="cls-1" d="M379,263.58c-.5.43-1,.9-1.62,1.43s-1.15,1-1.7,1.47a17.93,17.93,0,0,1-1.53,1.15,2.21,2.21,0,0,1-1.06.47c-.49,0-.73-.41-.73-1.2a23.92,23.92,0,0,0-.56-4.66q-.56-2.73-1.24-5.58c-.47-1.91-.88-3.72-1.25-5.45a20.67,20.67,0,0,1-.55-4.15,14.31,14.31,0,0,1,1.33-6,19.58,19.58,0,0,1,3.46-5.17,18.81,18.81,0,0,1,4.66-3.64,10.48,10.48,0,0,1,5-1.39c.19,0,.28.13.28.37a1.57,1.57,0,0,1-.69,1.06,12.46,12.46,0,0,0-1.53,1.67,11.54,11.54,0,0,0-1.52,2.76,12.15,12.15,0,0,0-.69,4.48,27.69,27.69,0,0,0,.37,4.56c.24,1.51.51,3,.78,4.53s.54,3,.79,4.52a28.92,28.92,0,0,1,.37,4.56l3.36-3.18a38.1,38.1,0,0,0,3.19-3.42,16.5,16.5,0,0,0,2.39-3.87,10.78,10.78,0,0,0,.93-4.47,10.24,10.24,0,0,0-.33-2.63,24.25,24.25,0,0,0-.73-2.36c-.28-.73-.54-1.43-.79-2.07a5.46,5.46,0,0,1-.37-1.89,4.12,4.12,0,0,1,1.48-3.51,6.1,6.1,0,0,1,3.78-1.11,5.56,5.56,0,0,1,4.75,2.17,8.2,8.2,0,0,1,1.62,5,10.85,10.85,0,0,1-1.11,4.66,26.07,26.07,0,0,1-2.68,4.47,29,29,0,0,1-3.41,3.88q-1.85,1.75-3.23,2.95Z"/><path class="cls-1" d="M423.46,231.93l-8,21.31c-.43,1-.83,2.06-1.2,3.05a7.32,7.32,0,0,0-.56,2.49,3.16,3.16,0,0,0,1.2,2.72,4.62,4.62,0,0,0,2.77.88,8,8,0,0,0,3.55-.7,10,10,0,0,0,2.4-1.56,19.22,19.22,0,0,0,1.57-1.57c.4-.46.75-.69,1.06-.69s.56.24.56.73a6.44,6.44,0,0,1-1.39,1.8,26.6,26.6,0,0,1-3.6,3.23,29.62,29.62,0,0,1-5,3.09,12.14,12.14,0,0,1-5.44,1.39,13.66,13.66,0,0,1-3.05-.37,11.62,11.62,0,0,1-2.9-1.11,6,6,0,0,1-2.17-2,5.51,5.51,0,0,1-.83-3,7.87,7.87,0,0,1,.28-1.94c.18-.74.4-1.54.64-2.4s.52-1.71.83-2.54.59-1.61.83-2.35l7.29-20.39Zm-9.07-12.35a7.39,7.39,0,0,1,.55-2.77,7.61,7.61,0,0,1,1.52-2.4,8.11,8.11,0,0,1,2.31-1.66,6.81,6.81,0,0,1,3-.64,5.42,5.42,0,0,1,3.92,1.38,5,5,0,0,1,1.43,3.78,7.28,7.28,0,0,1-.56,2.82,8.14,8.14,0,0,1-1.52,2.4,7.52,7.52,0,0,1-2.3,1.7,6.87,6.87,0,0,1-3,.65,5.37,5.37,0,0,1-3.92-1.39A5.1,5.1,0,0,1,414.39,219.58Z"/><path class="cls-2" d="M139.2,260.33a4.75,4.75,0,0,0-4.86,4.63,4.52,4.52,0,0,0,1.48,3.34c-2,1.82-4.13,3.52-6.27,5.18-3.48,2.6-7,5.14-10.66,7.44a46.3,46.3,0,0,1-5.56,3.07,9.57,9.57,0,0,1-5.51.9c-1.6-.34-2.34-1.49-2.72-3.51a14.5,14.5,0,0,1,.14-5.86,50,50,0,0,1,4.52-11.74c2-3.83,4.11-7.57,6.43-11.19,4.6-7.32,9.66-14.45,14.52-21.75,2.42-3.64,4.81-7.32,7-11.14a60.46,60.46,0,0,0,5.62-12,23.41,23.41,0,0,0,.6-13.27,13.57,13.57,0,0,0-3.24-6,9,9,0,0,0-6.48-2.52c-4.73.1-9,2.56-12.27,5.52a43.11,43.11,0,0,0-8.68,10.25,75.82,75.82,0,0,0-7.53,18c-.7-2.71-1.46-5.37-2.32-8.05a72,72,0,0,0-6.28-14.34,23.16,23.16,0,0,0-5.4-6.35,11.69,11.69,0,0,0-4.15-2.1,9.38,9.38,0,0,0-4.88.12,13,13,0,0,0-7.14,5.36A18,18,0,0,0,73,202.45a42.27,42.27,0,0,0,2.12,15.71,81.88,81.88,0,0,0,5.82,14.4,86.29,86.29,0,0,0,18.95,24.05.21.21,0,0,0,.26,0,.21.21,0,0,0,0-.28,99.81,99.81,0,0,1-16.53-25.11,77.8,77.8,0,0,1-5-14,43.25,43.25,0,0,1-1.58-14.34,13.87,13.87,0,0,1,2-6.2,9,9,0,0,1,4.82-3.57,5.59,5.59,0,0,1,5.23,1.24,20.25,20.25,0,0,1,4.42,5.21,66.72,66.72,0,0,1,6.12,13.38,134.82,134.82,0,0,1,4.08,14.41v.06a1.85,1.85,0,0,0,1.34,1.36,1.81,1.81,0,0,0,2.22-1.32c2.14-8.44,4.25-16.85,8.37-24.33A39.75,39.75,0,0,1,123.37,193a22.71,22.71,0,0,1,5-3.76,14,14,0,0,1,5.87-1.78,7.23,7.23,0,0,1,5.44,2,12.41,12.41,0,0,1,3,5.36,20.31,20.31,0,0,1-.56,12.51c-2.78,8.16-8.24,15.17-13.35,22.17s-10.7,13.81-15.54,21.19a103.35,103.35,0,0,0-6.65,11.53c-1.9,4-3.78,8.06-4.66,12.7A18.27,18.27,0,0,0,102,282a9,9,0,0,0,1.58,3.63,6.12,6.12,0,0,0,3.68,2.16,12.16,12.16,0,0,0,7.19-1.42,42.48,42.48,0,0,0,5.76-3.55,107.54,107.54,0,0,0,10.34-8.2c2.06-1.88,4.13-3.76,6-5.82a5,5,0,0,0,2.66.76,4.64,4.64,0,1,0,0-9.27Zm0,7.91a3.3,3.3,0,0,1-1.72-.46,2.29,2.29,0,0,1-.64-.44,3.18,3.18,0,0,1-1.08-2.38,3.44,3.44,0,1,1,3.44,3.28Z"/><path class="cls-1" d="M79.24,301.59l-2,8.8H75.38l2-8.8Zm-.39-1.51a1.21,1.21,0,0,1-.82-.27,1,1,0,0,1-.29-.77,1.28,1.28,0,0,1,.38-.93,1.31,1.31,0,0,1,.92-.33,1.19,1.19,0,0,1,.82.27.85.85,0,0,1,.27.75,1.22,1.22,0,0,1-1.28,1.28Z"/><path class="cls-1" d="M84.48,310.51a2,2,0,0,1-1.82-.76,2.45,2.45,0,0,1-.22-2l2.35-10.09h1.8l-2.34,10.13a1.06,1.06,0,0,0,.09,1,1.12,1.12,0,0,0,.91.31l.43,0,.34,0-.38,1.32a2.4,2.4,0,0,1-.54.14A3.72,3.72,0,0,1,84.48,310.51Z"/><path class="cls-1" d="M96.45,303l.34-1.45H103l-.33,1.45Zm3.18,7.49a3.29,3.29,0,0,1-1.53-.34,1.88,1.88,0,0,1-.9-1,2.83,2.83,0,0,1-.06-1.6L99,299.68l1.93-.55-2,8.48a1.1,1.1,0,0,0,.2,1.12,1.48,1.48,0,0,0,1,.34,2.26,2.26,0,0,0,.74-.11,2.1,2.1,0,0,0,.56-.28l.16,1.35a2.88,2.88,0,0,1-.93.39A4.78,4.78,0,0,1,99.63,310.53Z"/><path class="cls-1" d="M108.27,310.53a3.09,3.09,0,0,1-1.66-.43,2.28,2.28,0,0,1-1-1.22,3.28,3.28,0,0,1-.07-1.91l1.25-5.38h1.81l-1.21,5.24a1.88,1.88,0,0,0,.2,1.63A1.65,1.65,0,0,0,109,309a2.49,2.49,0,0,0,1.27-.31,2.76,2.76,0,0,0,.92-.94,5.37,5.37,0,0,0,.59-1.53l1.07-4.66h1.82l-2,8.8H111l.36-2.18.18.14a3,3,0,0,1-1.25,1.63A3.64,3.64,0,0,1,108.27,310.53Z"/><path class="cls-1" d="M121.81,310.54a4.34,4.34,0,0,1-2.2-.52,3.53,3.53,0,0,1-1.4-1.44,4.18,4.18,0,0,1-.48-2,5.72,5.72,0,0,1,.59-2.66A4.66,4.66,0,0,1,120,302.1a4.48,4.48,0,0,1,2.44-.66,4.29,4.29,0,0,1,2.2.52,3.54,3.54,0,0,1,1.39,1.43,4.22,4.22,0,0,1,.47,2,5.83,5.83,0,0,1-.58,2.65,4.58,4.58,0,0,1-1.63,1.85A4.37,4.37,0,0,1,121.81,310.54Zm0-1.44a2.29,2.29,0,0,0,1.09-.27,2.76,2.76,0,0,0,.9-.78,3.74,3.74,0,0,0,.59-1.2,5.42,5.42,0,0,0,.2-1.49,3,3,0,0,0-.25-1.26,2,2,0,0,0-.75-.89,2.37,2.37,0,0,0-1.3-.33,2.33,2.33,0,0,0-1.1.27,2.65,2.65,0,0,0-.9.77,3.9,3.9,0,0,0-.59,1.19,5.13,5.13,0,0,0-.21,1.5,3,3,0,0,0,.25,1.25,2.08,2.08,0,0,0,.77.91A2.34,2.34,0,0,0,121.86,309.1Z"/><path class="cls-1" d="M140.87,310.53a3.14,3.14,0,0,1-2.91-1.79,4.32,4.32,0,0,1-.43-2,6.5,6.5,0,0,1,.32-2,5.61,5.61,0,0,1,.92-1.71,4.26,4.26,0,0,1,1.41-1.16,3.91,3.91,0,0,1,1.8-.42,3.52,3.52,0,0,1,1.32.24,2.67,2.67,0,0,1,1,.72,2.76,2.76,0,0,1,.55,1.17l.44-2h1.81l-2,8.8h-1.6l.3-1.64a3.29,3.29,0,0,1-1.19,1.29A3.08,3.08,0,0,1,140.87,310.53Zm.61-1.45a2.1,2.1,0,0,0,1.08-.3,3.08,3.08,0,0,0,.89-.84,4.18,4.18,0,0,0,.62-1.23,4.82,4.82,0,0,0,.23-1.48A2.74,2.74,0,0,0,144,304a1.92,1.92,0,0,0-1.81-1.1,2.27,2.27,0,0,0-1.19.31,3,3,0,0,0-.91.82,4.41,4.41,0,0,0-.6,1.21,4.82,4.82,0,0,0-.22,1.44,3.06,3.06,0,0,0,.26,1.31,1.91,1.91,0,0,0,.73.83A2.28,2.28,0,0,0,141.48,309.08Z"/><path class="cls-1" d="M148.89,314.08l2.88-12.49h1.6L153,304l-.21.12a3.58,3.58,0,0,1,.69-1.41,3.21,3.21,0,0,1,1.19-.91,3.65,3.65,0,0,1,1.51-.32,2.94,2.94,0,0,1,2.76,1.73,4.46,4.46,0,0,1,.43,2,6.43,6.43,0,0,1-.34,2.08,5.59,5.59,0,0,1-.93,1.72,4.44,4.44,0,0,1-1.41,1.15,3.91,3.91,0,0,1-1.77.41,3.37,3.37,0,0,1-1.47-.32,2.7,2.7,0,0,1-1.06-.95,3.05,3.05,0,0,1-.43-1.47l.28-.27-1.49,6.53Zm5.78-5a2.21,2.21,0,0,0,1.12-.3,2.94,2.94,0,0,0,.91-.82,4.21,4.21,0,0,0,.6-1.22,4.67,4.67,0,0,0,.22-1.47,3,3,0,0,0-.26-1.31,1.83,1.83,0,0,0-.74-.79,2.13,2.13,0,0,0-1.11-.28,2.27,2.27,0,0,0-1.15.3,2.94,2.94,0,0,0-.91.82,4.13,4.13,0,0,0-.59,1.23,5.37,5.37,0,0,0-.21,1.52,2.53,2.53,0,0,0,.54,1.68A2,2,0,0,0,154.67,309.1Z"/><path class="cls-1" d="M161.55,314.08l2.88-12.49H166l-.42,2.38-.21.12a3.58,3.58,0,0,1,.69-1.41,3.21,3.21,0,0,1,1.19-.91,3.65,3.65,0,0,1,1.51-.32,3.06,3.06,0,0,1,1.63.44,3.11,3.11,0,0,1,1.13,1.29,4.34,4.34,0,0,1,.43,2,6.43,6.43,0,0,1-.34,2.08,5.59,5.59,0,0,1-.93,1.72,4.44,4.44,0,0,1-1.41,1.15,3.91,3.91,0,0,1-1.77.41,3.37,3.37,0,0,1-1.47-.32,2.7,2.7,0,0,1-1.06-.95,3.05,3.05,0,0,1-.43-1.47l.28-.27-1.49,6.53Zm5.78-5a2.21,2.21,0,0,0,1.12-.3,2.94,2.94,0,0,0,.91-.82,4.21,4.21,0,0,0,.6-1.22,4.67,4.67,0,0,0,.22-1.47,3,3,0,0,0-.26-1.31,1.83,1.83,0,0,0-.74-.79,2.13,2.13,0,0,0-1.11-.28,2.27,2.27,0,0,0-1.15.3,2.91,2.91,0,0,0-.9.82,3.92,3.92,0,0,0-.6,1.23,5.37,5.37,0,0,0-.21,1.52,2.53,2.53,0,0,0,.54,1.68A2,2,0,0,0,167.33,309.1Z"/><path class="cls-1" d="M178.4,310.53a3.15,3.15,0,0,1-1.67-.43,2.37,2.37,0,0,1-1-1.22,3.37,3.37,0,0,1-.06-1.91l1.25-5.38h1.81l-1.21,5.24a1.84,1.84,0,0,0,.2,1.63,1.65,1.65,0,0,0,1.38.57,2.52,2.52,0,0,0,1.27-.31,2.76,2.76,0,0,0,.92-.94,5.37,5.37,0,0,0,.59-1.53l1.07-4.66h1.81l-2,8.8h-1.6l.37-2.18.18.14A3,3,0,0,1,180.4,310,3.69,3.69,0,0,1,178.4,310.53Z"/><path class="cls-1" d="M187.38,310.39l2-8.8H191l-.37,2.18-.17-.12a2.89,2.89,0,0,1,1.28-1.67,4,4,0,0,1,2.06-.56,3.06,3.06,0,0,1,1.68.43,2.32,2.32,0,0,1,1,1.24,3.39,3.39,0,0,1,0,1.93l-1.25,5.37h-1.79l1.21-5.28a2,2,0,0,0-.18-1.62,1.62,1.62,0,0,0-1.37-.58,2.48,2.48,0,0,0-1.29.33,2.76,2.76,0,0,0-.94.95,5.49,5.49,0,0,0-.62,1.54l-1.07,4.66Z"/><path class="cls-1" d="M200.34,303l.33-1.45h6.19l-.33,1.45Zm3.18,7.49a3.29,3.29,0,0,1-1.53-.34,1.88,1.88,0,0,1-.9-1,2.83,2.83,0,0,1-.06-1.6l1.83-7.89,1.93-.55-2,8.48a1.1,1.1,0,0,0,.2,1.12,1.46,1.46,0,0,0,1,.34,2.26,2.26,0,0,0,.74-.11,2.1,2.1,0,0,0,.56-.28l.16,1.35a2.88,2.88,0,0,1-.93.39A4.78,4.78,0,0,1,203.52,310.53Z"/><path class="cls-1" d="M212.6,310.53a3.14,3.14,0,0,1-2.91-1.79,4.32,4.32,0,0,1-.43-2,6.23,6.23,0,0,1,.32-2,5.41,5.41,0,0,1,.92-1.71,4.26,4.26,0,0,1,1.41-1.16,3.91,3.91,0,0,1,1.8-.42,3.51,3.51,0,0,1,1.31.24,2.7,2.7,0,0,1,1,.72,2.76,2.76,0,0,1,.55,1.17l.44-2h1.81l-2,8.8h-1.6l.3-1.64a3.29,3.29,0,0,1-1.19,1.29A3.08,3.08,0,0,1,212.6,310.53Zm.61-1.45a2.12,2.12,0,0,0,1.08-.3,3.36,3.36,0,0,0,.89-.84,4.43,4.43,0,0,0,.62-1.23,4.82,4.82,0,0,0,.23-1.48,2.74,2.74,0,0,0-.27-1.25,1.89,1.89,0,0,0-.72-.81,1.93,1.93,0,0,0-1.09-.29,2.25,2.25,0,0,0-1.19.31,2.85,2.85,0,0,0-.91.82,4.41,4.41,0,0,0-.6,1.21,4.82,4.82,0,0,0-.22,1.44,3.06,3.06,0,0,0,.26,1.31,1.91,1.91,0,0,0,.73.83A2.26,2.26,0,0,0,213.21,309.08Z"/><path class="cls-1" d="M221.46,310.39l2-8.8h1.6l-.37,2.18-.18-.12a2.93,2.93,0,0,1,1.28-1.67,3.88,3.88,0,0,1,2-.56,2.87,2.87,0,0,1,1.61.43,2.3,2.3,0,0,1,.93,1.24,3.62,3.62,0,0,1,0,2l-1.25,5.33h-1.81l1.23-5.24a2,2,0,0,0-.15-1.65,1.42,1.42,0,0,0-1.27-.59,2.53,2.53,0,0,0-1.29.33,2.65,2.65,0,0,0-.93.95,6.18,6.18,0,0,0-.6,1.54l-1.07,4.66Zm11.8,0,1.21-5.24a2,2,0,0,0-.15-1.65,1.42,1.42,0,0,0-1.27-.59,2.46,2.46,0,0,0-1.28.33,2.65,2.65,0,0,0-.93.95,5.82,5.82,0,0,0-.61,1.54l-.17-1.73a3.86,3.86,0,0,1,1.49-1.93,3.91,3.91,0,0,1,2.2-.65,2.87,2.87,0,0,1,1.61.43,2.37,2.37,0,0,1,.94,1.24,3.45,3.45,0,0,1,0,2l-1.23,5.33Z"/><path class="cls-1" d="M242,310a3.56,3.56,0,0,1-1.39-1.41,4.15,4.15,0,0,1-.49-2,5.87,5.87,0,0,1,.57-2.6,4.45,4.45,0,0,1,4.19-2.55,3.83,3.83,0,0,1,1.91.45,3.2,3.2,0,0,1,1.23,1.27,3.87,3.87,0,0,1,.43,1.86,5.24,5.24,0,0,1-.21,1.48h-7.12v-1.41h6.15l-.67.5a2.71,2.71,0,0,0,.11-.8,2.16,2.16,0,0,0-.23-1,1.55,1.55,0,0,0-.67-.67,2.08,2.08,0,0,0-1-.24,2.55,2.55,0,0,0-1.66.55,3.13,3.13,0,0,0-.95,1.42,5.75,5.75,0,0,0-.29,1.83,2.67,2.67,0,0,0,.3,1.29,2.11,2.11,0,0,0,.84.86,2.38,2.38,0,0,0,1.24.31,2.62,2.62,0,0,0,1.33-.35,2.46,2.46,0,0,0,.88-.93l1.46.81a3.8,3.8,0,0,1-1.55,1.39,4.82,4.82,0,0,1-2.26.5A4.25,4.25,0,0,1,242,310Z"/><path class="cls-1" d="M251.56,310.39l2-8.8h1.6l-.36,2.18-.18-.12a2.89,2.89,0,0,1,1.28-1.67,4,4,0,0,1,2.06-.56,3.1,3.1,0,0,1,1.69.43,2.32,2.32,0,0,1,1,1.24,3.48,3.48,0,0,1,0,1.93l-1.24,5.37h-1.8l1.21-5.28a1.88,1.88,0,0,0-.18-1.62,1.6,1.6,0,0,0-1.36-.58,2.49,2.49,0,0,0-1.3.33,2.76,2.76,0,0,0-.94.95,5.5,5.5,0,0,0-.61,1.54l-1.07,4.66Z"/><path class="cls-1" d="M264.53,303l.33-1.45h6.19l-.33,1.45Zm3.18,7.49a3.33,3.33,0,0,1-1.54-.34,1.88,1.88,0,0,1-.9-1,2.83,2.83,0,0,1-.06-1.6l1.83-7.89,1.93-.55-2,8.48a1.1,1.1,0,0,0,.21,1.12,1.45,1.45,0,0,0,1,.34A2.37,2.37,0,0,0,269,309a2,2,0,0,0,.55-.28l.16,1.35a2.75,2.75,0,0,1-.92.39A4.93,4.93,0,0,1,267.71,310.53Z"/><path class="cls-1" d="M277.54,310.54a4.34,4.34,0,0,1-2.2-.52,3.53,3.53,0,0,1-1.4-1.44,4.18,4.18,0,0,1-.48-2,5.72,5.72,0,0,1,.59-2.66,4.59,4.59,0,0,1,1.63-1.83,4.48,4.48,0,0,1,2.44-.66,4.32,4.32,0,0,1,2.2.52,3.45,3.45,0,0,1,1.38,1.43,4.11,4.11,0,0,1,.48,2,5.83,5.83,0,0,1-.58,2.65,4.58,4.58,0,0,1-1.63,1.85A4.39,4.39,0,0,1,277.54,310.54Zm0-1.44a2.29,2.29,0,0,0,1.09-.27,2.76,2.76,0,0,0,.9-.78,4,4,0,0,0,.59-1.2,5.42,5.42,0,0,0,.2-1.49,3,3,0,0,0-.25-1.26,2,2,0,0,0-.75-.89,2.57,2.57,0,0,0-2.41-.06,2.71,2.71,0,0,0-.89.77,3.9,3.9,0,0,0-.59,1.19,5.13,5.13,0,0,0-.21,1.5,3,3,0,0,0,.25,1.25,2.08,2.08,0,0,0,.77.91A2.34,2.34,0,0,0,277.59,309.1Z"/><path class="cls-1" d="M297.3,310.54a4.2,4.2,0,0,1-2.15-.52,3.42,3.42,0,0,1-1.38-1.44,4.2,4.2,0,0,1-.48-2,5.78,5.78,0,0,1,.59-2.65,4.44,4.44,0,0,1,4.14-2.48,4.35,4.35,0,0,1,1.84.36,3.31,3.31,0,0,1,1.27,1,3.19,3.19,0,0,1,.6,1.47l-1.83.38a1.88,1.88,0,0,0-.51-1.26,1.86,1.86,0,0,0-1.44-.51,2.35,2.35,0,0,0-1.14.28,2.87,2.87,0,0,0-.92.79,4,4,0,0,0-.59,1.19,5.3,5.3,0,0,0-.2,1.48,2.92,2.92,0,0,0,.27,1.27,2,2,0,0,0,.78.89,2.27,2.27,0,0,0,1.26.32,2.23,2.23,0,0,0,1.2-.34,1.84,1.84,0,0,0,.78-1l1.69.58a3.33,3.33,0,0,1-1.46,1.62A4.51,4.51,0,0,1,297.3,310.54Z"/><path class="cls-1" d="M308.68,310.54a4.34,4.34,0,0,1-2.2-.52,3.53,3.53,0,0,1-1.4-1.44,4.18,4.18,0,0,1-.48-2,5.85,5.85,0,0,1,.59-2.66,4.66,4.66,0,0,1,1.63-1.83,4.48,4.48,0,0,1,2.44-.66,4.35,4.35,0,0,1,2.21.52,3.58,3.58,0,0,1,1.38,1.43,4.22,4.22,0,0,1,.47,2,5.83,5.83,0,0,1-.58,2.65,4.51,4.51,0,0,1-1.63,1.85A4.35,4.35,0,0,1,308.68,310.54Zm.05-1.44a2.29,2.29,0,0,0,1.09-.27,2.76,2.76,0,0,0,.9-.78,3.74,3.74,0,0,0,.59-1.2,5.42,5.42,0,0,0,.2-1.49,3.15,3.15,0,0,0-.24-1.26,2.06,2.06,0,0,0-.76-.89,2.55,2.55,0,0,0-2.4-.06,2.65,2.65,0,0,0-.9.77,3.9,3.9,0,0,0-.59,1.19,5.13,5.13,0,0,0-.21,1.5,3,3,0,0,0,.26,1.25,2.05,2.05,0,0,0,.76.91A2.37,2.37,0,0,0,308.73,309.1Z"/><path class="cls-1" d="M316.43,310.39l2-8.8h1.6l-.37,2.18-.17-.12a2.89,2.89,0,0,1,1.28-1.67,4,4,0,0,1,2.06-.56,3.1,3.1,0,0,1,1.69.43,2.32,2.32,0,0,1,1,1.24,3.48,3.48,0,0,1,0,1.93l-1.25,5.37H322.5l1.21-5.28a1.88,1.88,0,0,0-.18-1.62,1.6,1.6,0,0,0-1.36-.58,2.49,2.49,0,0,0-1.3.33,2.76,2.76,0,0,0-.94.95,5.5,5.5,0,0,0-.61,1.54l-1.08,4.66Z"/><path class="cls-1" d="M339,310.51a2,2,0,0,1-1.82-.76,2.45,2.45,0,0,1-.22-2l2.35-10.09h1.8l-2.34,10.13a1.06,1.06,0,0,0,.09,1,1.12,1.12,0,0,0,.91.31l.43,0,.34,0-.38,1.32a2.4,2.4,0,0,1-.54.14A3.72,3.72,0,0,1,339,310.51Z"/><path class="cls-1" d="M347.3,310.53a3.14,3.14,0,0,1-2.92-1.79,4.45,4.45,0,0,1-.43-2,6.23,6.23,0,0,1,.33-2,5.38,5.38,0,0,1,.91-1.71,4.4,4.4,0,0,1,1.42-1.16,3.9,3.9,0,0,1,1.79-.42,3.52,3.52,0,0,1,1.32.24,2.59,2.59,0,0,1,1,.72,2.77,2.77,0,0,1,.56,1.17l.44-2h1.81l-2,8.8h-1.6l.3-1.64A3.24,3.24,0,0,1,349,310,3,3,0,0,1,347.3,310.53Zm.61-1.45a2.06,2.06,0,0,0,1.07-.3,3.25,3.25,0,0,0,.9-.84,4.43,4.43,0,0,0,.62-1.23,4.82,4.82,0,0,0,.22-1.48,2.74,2.74,0,0,0-.26-1.25,2,2,0,0,0-.72-.81,2,2,0,0,0-1.09-.29,2.31,2.31,0,0,0-1.2.31,2.92,2.92,0,0,0-.9.82,4.15,4.15,0,0,0-.6,1.21,4.52,4.52,0,0,0-.22,1.44A3.06,3.06,0,0,0,346,308a2,2,0,0,0,.73.83A2.32,2.32,0,0,0,347.91,309.08Z"/><path class="cls-1" d="M365.1,309.91a3.77,3.77,0,0,1-1.61-1.83l1.39-.81a2.83,2.83,0,0,0,2.81,1.87,2.15,2.15,0,0,0,1.27-.33,1,1,0,0,0,.46-.87.83.83,0,0,0-.26-.63,1.87,1.87,0,0,0-.76-.41l-1.45-.4a3.64,3.64,0,0,1-1.68-.94,2,2,0,0,1-.57-1.45,2.41,2.41,0,0,1,.43-1.39,2.82,2.82,0,0,1,1.22-1,4.51,4.51,0,0,1,1.84-.34,4.67,4.67,0,0,1,2.25.53,3.31,3.31,0,0,1,1.44,1.56l-1.36.86a2.26,2.26,0,0,0-.91-1.11,2.6,2.6,0,0,0-1.48-.42,2.35,2.35,0,0,0-1.28.29,1,1,0,0,0-.44.82.83.83,0,0,0,.3.66,2,2,0,0,0,.82.39l1.73.51a3,3,0,0,1,1.41.84,1.89,1.89,0,0,1,.52,1.33,2.59,2.59,0,0,1-1,2.12,3.91,3.91,0,0,1-2.52.78A4.92,4.92,0,0,1,365.1,309.91Z"/><path class="cls-1" d="M378.17,310.53a3.14,3.14,0,0,1-2.91-1.79,4.45,4.45,0,0,1-.43-2,6.23,6.23,0,0,1,.33-2,5.38,5.38,0,0,1,.91-1.71,4.3,4.3,0,0,1,1.42-1.16,3.9,3.9,0,0,1,1.79-.42,3.52,3.52,0,0,1,1.32.24,2.59,2.59,0,0,1,1,.72,2.77,2.77,0,0,1,.56,1.17l.44-2h1.81l-2,8.8h-1.6l.3-1.64a3.24,3.24,0,0,1-1.2,1.29A3.06,3.06,0,0,1,378.17,310.53Zm.62-1.45a2.09,2.09,0,0,0,1.07-.3,3.25,3.25,0,0,0,.9-.84,4.16,4.16,0,0,0,.61-1.23,4.54,4.54,0,0,0,.23-1.48,2.74,2.74,0,0,0-.26-1.25,2,2,0,0,0-.72-.81,2,2,0,0,0-1.09-.29,2.28,2.28,0,0,0-1.2.31,2.92,2.92,0,0,0-.9.82,3.92,3.92,0,0,0-.6,1.21,4.52,4.52,0,0,0-.22,1.44,3.06,3.06,0,0,0,.25,1.31,2,2,0,0,0,.73.83A2.32,2.32,0,0,0,378.79,309.08Z"/><path class="cls-1" d="M389.64,310.51a2,2,0,0,1-1.82-.76,2.45,2.45,0,0,1-.22-2L390,297.64h1.79l-2.34,10.13a1.06,1.06,0,0,0,.09,1,1.12,1.12,0,0,0,.91.31l.43,0,.35,0-.39,1.32a2.4,2.4,0,0,1-.54.14A3.72,3.72,0,0,1,389.64,310.51Z"/><path class="cls-1" d="M397.71,310.53a3.11,3.11,0,0,1-1.66-.43,2.28,2.28,0,0,1-1-1.22A3.2,3.2,0,0,1,395,307l1.25-5.38H398l-1.22,5.24a1.91,1.91,0,0,0,.2,1.63,1.66,1.66,0,0,0,1.39.57,2.45,2.45,0,0,0,1.26-.31,2.68,2.68,0,0,0,.92-.94,5.09,5.09,0,0,0,.59-1.53l1.08-4.66h1.81l-2,8.8h-1.6l.37-2.18.17.14a3,3,0,0,1-1.24,1.63A3.7,3.7,0,0,1,397.71,310.53Z"/><path class="cls-1" d="M407.35,303l.33-1.45h6.19l-.33,1.45Zm3.18,7.49a3.33,3.33,0,0,1-1.54-.34,1.88,1.88,0,0,1-.9-1,2.83,2.83,0,0,1-.06-1.6l1.83-7.89,1.94-.55-2,8.48a1.08,1.08,0,0,0,.2,1.12,1.45,1.45,0,0,0,1,.34,2.37,2.37,0,0,0,.75-.11,2,2,0,0,0,.55-.28l.16,1.35a2.75,2.75,0,0,1-.92.39A4.93,4.93,0,0,1,410.53,310.53Z"/><path class="cls-1" d="M418.16,310a3.56,3.56,0,0,1-1.39-1.41,4.15,4.15,0,0,1-.49-2,5.87,5.87,0,0,1,.57-2.6,4.48,4.48,0,0,1,4.2-2.55,3.81,3.81,0,0,1,1.9.45,3.07,3.07,0,0,1,1.23,1.27,3.87,3.87,0,0,1,.44,1.86,5.25,5.25,0,0,1-.22,1.48h-7.12v-1.41h6.16l-.67.5a3.08,3.08,0,0,0,.1-.8,2.16,2.16,0,0,0-.22-1,1.66,1.66,0,0,0-.67-.67,2.13,2.13,0,0,0-1-.24,2.56,2.56,0,0,0-1.67.55,3.13,3.13,0,0,0-1,1.42,5.75,5.75,0,0,0-.28,1.83,2.79,2.79,0,0,0,.29,1.29,2.11,2.11,0,0,0,.84.86,2.4,2.4,0,0,0,1.24.31,2.66,2.66,0,0,0,1.34-.35,2.63,2.63,0,0,0,.88-.93l1.46.81a3.93,3.93,0,0,1-1.55,1.39,4.89,4.89,0,0,1-2.27.5A4.25,4.25,0,0,1,418.16,310Z"/></svg>